HIERARCHY
ROOT hip
{
	OFFSET 0.000000 0.000000 0.000000 
	CHANNELS 6 Xposition Yposition Zposition Xrotation Zrotation Yrotation
	JOINT abdomen
	{
		OFFSET 0.000000 3.402643 0.000000 
		CHANNELS 3 Xrotation Zrotation Yrotation
		JOINT chest
		{
			OFFSET 0.000000 8.438565 -0.680529 
			CHANNELS 3 Xrotation Zrotation Yrotation
			JOINT neck
			{
				OFFSET 0.000000 10.207942 -0.272212 
				CHANNELS 3 Xrotation Zrotation Yrotation
				JOINT head
				{
					OFFSET 0.000000 3.130431 0.000000 
					CHANNELS 3 Xrotation Zrotation Yrotation
					End Site
					{
						OFFSET 0.000000 3.130435 0.000000 
					}
				}
			}
			JOINT lCollar
			{
				OFFSET 3.470700 6.669187 -0.816635 
				CHANNELS 3 Yrotation Zrotation Xrotation
				JOINT lShldr
				{
					OFFSET 3.198488 0.000000 0.000000 
					CHANNELS 3 Zrotation Yrotation Xrotation
					JOINT lForeArm
					{
						OFFSET 10.139888 0.000000 0.000000 
						CHANNELS 3 Yrotation Zrotation Xrotation
						JOINT lHand
						{
							OFFSET 8.370511 0.000000 0.000000 
							CHANNELS 3 Zrotation Yrotation Xrotation
							End Site
							{
								OFFSET 4.083176 0.000000 0.000000 
							}
						}
					}
				}
			}
			JOINT rCollar
			{
				OFFSET -3.470700 6.669187 -0.816635 
				CHANNELS 3 Yrotation Zrotation Xrotation
				JOINT rShldr
				{
					OFFSET -3.198488 0.000000 0.000000 
					CHANNELS 3 Zrotation Yrotation Xrotation
					JOINT rForeArm
					{
						OFFSET -10.139888 0.000000 0.000000 
						CHANNELS 3 Yrotation Zrotation Xrotation
						JOINT rHand
						{
							OFFSET -8.370511 0.000000 0.000000 
							CHANNELS 3 Zrotation Yrotation Xrotation
							End Site
							{
								OFFSET -4.083176 0.000000 0.000000 
							}
						}
					}
				}
			}
		}
	}
	JOINT lThigh
	{
		OFFSET 5.308129 -1.633274 1.361059 
		CHANNELS 3 Xrotation Zrotation Yrotation
		JOINT lShin
		{
			OFFSET -2.041588 -20.007561 0.000000 
			CHANNELS 3 Xrotation Zrotation Yrotation
			JOINT lFoot
			{
				OFFSET 0.000000 -19.190928 -1.224953 
				CHANNELS 3 Xrotation Yrotation Zrotation
				End Site
				{
					OFFSET 0.000000 -2.449906 4.627600 
				}
			}
		}
	}
	JOINT rThigh
	{
		OFFSET -5.308129 -1.633274 1.361059 
		CHANNELS 3 Xrotation Zrotation Yrotation
		JOINT rShin
		{
			OFFSET 2.041588 -20.007561 0.000000 
			CHANNELS 3 Xrotation Zrotation Yrotation
			JOINT rFoot
			{
				OFFSET 0.000000 -19.190928 -1.224953 
				CHANNELS 3 Xrotation Yrotation Zrotation
				End Site
				{
					OFFSET 0.000000 -2.449906 4.627600 
				}
			}
		}
	}
}
MOTION
Frames: 13
Frame Time: 0.033333
0.709563 52.979759 -0.153659 -6.337891 2.265625 -121.542969 16.093239 -2.755792 -1.460938 -4.308799 -6.858070 -4.340716 51.562500 8.076172 2.618559 -80.351563 -6.738282 -1.163255 7.516428 -25.000000 12.978610 -52.074402 49.973785 -53.947826 -67.241501 -0.396223 -2.677004 -3.330050 31.797293 -16.286152 -5.410260 25.000000 14.582336 32.591496 -25.905041 -22.161396 77.617447 0.177096 -2.660081 3.603580 -68.079391 5.502357 -1.578480 -1.052098 0.698735 4.233307 -6.322955 -0.758044 2.398556 -2.232079 9.219421 -1.446981 -20.096426 -44.952236 10.943621 5.051542 0.671943 7.866807 -15.813402 7.942070 
1.496844 52.837410 -0.356910 -6.337891 1.572266 -118.827858 17.473120 -2.540987 -2.618793 -4.792685 -7.896245 -4.724239 51.562500 8.076172 2.618559 -80.576172 -7.021485 -0.449219 7.232333 -25.000000 12.915124 -50.283665 48.175812 -55.757977 -68.117386 -0.577076 -2.572496 -2.896965 32.883324 -16.247875 -5.278413 25.000000 14.602221 32.947868 -25.193705 -23.135691 77.968948 0.183429 -2.638901 4.734850 -68.302109 3.832772 -2.462123 -0.886648 -0.123984 5.658881 -5.910721 -0.936424 1.726574 -3.792672 8.820629 -1.953982 -20.614412 -42.945553 13.070724 5.089831 1.231414 8.508316 -17.598627 8.245074 
2.300087 52.687160 -0.693917 -6.162109 1.044922 -115.957039 18.667429 -2.385060 -3.590410 -5.100255 -8.939508 -5.127161 51.562500 8.076172 2.618559 -80.703125 -7.783204 -0.177104 6.696530 -25.000000 12.491166 -48.733250 46.135956 -56.055824 -69.711639 -0.438261 -2.775542 -1.369213 32.798443 -15.434690 -4.954129 25.000000 14.454394 33.098637 -24.936638 -24.876358 78.320450 0.189772 -2.627525 5.588857 -68.594879 2.724954 -3.122916 -0.371006 -0.817122 7.067770 -5.857123 -1.576454 1.383623 -4.858307 9.264696 -2.679178 -21.284388 -40.529308 15.551768 5.080253 1.485523 8.515672 -19.338745 9.250986 
3.195138 52.639717 -0.778305 -6.337891 0.341797 -113.066406 19.547562 -2.640342 -3.935273 -5.258762 -9.285378 -5.362893 51.562500 8.076172 2.618559 -80.371094 -8.945312 -0.878906 6.146921 -25.000000 12.505011 -47.704193 44.244110 -54.641048 -72.350151 -0.347267 -2.630717 0.317785 31.888777 -15.045215 -4.928759 25.000000 14.400491 34.337803 -25.046932 -27.679020 78.157455 0.020787 -2.852867 5.848031 -68.603783 1.766296 -3.819207 -0.058497 -2.370948 8.482056 -5.825346 -1.749586 1.664463 -6.577705 9.407311 -3.058928 -21.891577 -38.515736 18.186340 4.933617 1.909107 8.409994 -20.834301 9.902760 
3.292970 52.726700 -0.756125 -6.337891 -0.351563 -110.361328 20.107801 -3.459655 -3.723531 -5.258762 -9.285378 -5.187112 51.562500 8.076172 2.618559 -79.482422 -10.048829 -2.296626 5.511636 -25.000000 12.204817 -46.374241 42.055859 -51.940697 -74.640884 -0.045765 -2.685352 2.063192 30.493126 -13.615710 -4.822744 25.000000 14.477280 36.070995 -25.465801 -31.488247 78.508957 0.027135 -2.841511 7.182401 -68.979095 -0.124581 -4.742309 0.634219 -4.472781 9.898063 -5.993289 -1.380494 1.901451 -8.083480 9.444938 -3.049502 -23.091072 -36.422199 21.716064 4.807805 1.888049 10.867922 -22.201239 11.528987 
3.321711 52.766239 -0.685825 -6.337891 -0.878906 -108.193359 20.512552 -4.671907 -3.472957 -5.263005 -9.119415 -5.138263 51.562500 8.076172 2.618559 -78.525391 -10.712892 -3.663925 4.908032 -25.000000 11.931479 -44.863220 40.222340 -49.013920 -77.274315 -0.249061 -2.534698 3.365422 29.429537 -13.127663 -4.520948 25.000000 14.350680 38.497986 -26.239857 -35.866295 79.208420 0.235140 -2.955625 9.098966 -69.601120 -2.918135 -5.392820 1.375774 -6.064222 10.783154 -5.798927 -1.465806 2.790684 -9.312294 9.526383 -3.400873 -24.273720 -34.589100 25.935368 4.625292 2.441947 14.286840 -21.817446 13.715539 
3.282863 52.813686 -0.699598 -6.162109 -1.406250 -106.728516 20.939941 -5.986522 -2.902719 -5.277331 -8.943934 -4.921280 51.562500 8.076172 2.618559 -77.578125 -10.556642 -4.677734 4.214279 -25.000000 11.781927 -43.351654 38.067108 -45.539276 -79.747734 -0.117953 -2.679952 5.302346 28.022749 -12.183722 -4.492353 25.000000 14.292688 40.867283 -26.667280 -39.919376 79.559914 0.241516 -2.944385 10.666873 -69.911797 -5.140917 -6.056950 2.361568 -7.329837 11.476447 -5.777436 -1.545218 4.342443 -10.115948 9.312515 -3.743837 -25.216900 -33.189896 29.137085 4.563761 2.603199 18.517164 -20.112967 14.996884 
3.146439 53.019302 -1.090234 -5.986328 -1.757813 -105.996391 21.211014 -7.469116 -2.390255 -5.295877 -8.602491 -4.479730 51.562500 8.076172 2.618559 -76.679688 -9.580077 -5.167641 3.466870 -23.542311 11.454579 -42.185234 35.745609 -41.928726 -82.035873 0.025882 -2.632411 6.857094 26.421473 -11.867720 -4.359883 25.000000 14.327413 43.228809 -27.105350 -43.667587 79.924370 0.072327 -2.981989 11.481912 -70.311043 -6.405624 -6.110426 3.504605 -8.076934 11.305528 -5.740271 -2.032916 5.900101 -9.492085 10.302678 -3.461051 -24.864590 -32.464909 30.700478 4.368604 3.070836 23.261562 -18.342880 14.909666 
2.847680 53.050938 -2.013475 -5.634766 -1.933626 -106.514259 21.477724 -8.848560 -1.655550 -5.137453 -8.256629 -4.234375 51.562500 8.076172 2.618559 -76.250000 -8.017578 -4.737690 2.921303 -21.829617 11.294482 -41.446339 33.599724 -38.942829 -85.033211 -0.039018 -2.867947 8.516023 24.734089 -10.877845 -4.068543 25.000000 14.211648 45.682503 -27.192493 -47.066525 80.441856 0.081743 -2.794404 11.189326 -70.682266 -6.856236 -5.775247 5.006062 -9.535535 10.253604 -5.809700 -1.389497 7.095860 -8.469547 10.490933 -2.267444 -23.571938 -33.242065 29.828543 4.422092 2.625397 18.855661 -17.628082 14.424686 
2.404770 53.169552 -3.173332 -4.931641 -2.109375 -108.105469 21.741425 -10.017535 -0.999299 -5.146191 -7.914941 -3.970673 51.562500 8.076172 2.618559 -75.986328 -6.279297 -3.780365 2.218112 -20.322708 11.037071 -41.114357 31.463232 -35.692371 -87.513268 0.442509 -2.863033 10.286384 22.874676 -10.113210 -3.959346 24.575151 14.276956 47.522629 -27.275543 -49.972130 81.496536 0.091223 -2.917468 10.225368 -71.027298 -6.184023 -5.142093 6.587619 -9.400845 9.013908 -5.800296 -1.795899 8.290565 -6.635134 10.683234 -0.383909 -21.333214 -34.996918 27.532423 4.543811 2.603462 14.990968 -16.387398 11.920835 
1.992545 53.288166 -4.321213 -4.228516 -1.933594 -110.078461 21.985476 -10.942551 -0.470120 -4.987922 -7.569053 -3.725396 51.562500 8.076172 2.618559 -76.103516 -4.482423 -2.285156 1.696254 -18.787512 10.974615 -40.972324 29.817781 -33.388947 -90.139786 0.393707 -2.576775 12.144375 21.072229 -9.594139 -3.684803 23.892389 14.209650 48.268867 -26.874353 -51.375565 82.736725 0.104175 -3.040301 8.058537 -71.204269 -4.386941 -5.015698 7.993752 -9.621913 8.316975 -5.807514 -1.704631 9.616106 -4.418376 10.336952 1.314096 -18.979063 -36.802612 24.358736 4.690017 2.491748 11.891129 -14.303849 9.273252 
1.757704 53.351429 -5.300286 -3.525390 -1.933594 -112.734703 22.210865 -11.431518 -0.143598 -5.006512 -7.227615 -3.469604 51.562500 8.076172 2.618559 -76.259766 -2.851563 0.155764 1.111323 -17.452129 10.670290 -41.497566 28.536404 -31.431128 -92.775871 0.334872 -2.458774 14.347046 19.256216 -8.607841 -3.665168 23.190710 14.160567 48.038792 -26.352919 -51.538071 84.155540 -0.035775 -3.358450 4.360160 -71.598068 -1.593610 -5.661282 9.245029 -9.865261 8.844416 -5.661318 -1.411624 11.097828 -2.557524 10.038105 2.651655 -16.558048 -37.609299 21.538078 4.817079 2.050209 9.068163 -12.169826 6.778035 
1.774019 53.367241 -5.968513 -2.470703 -1.582043 -115.781677 22.551756 -11.300146 0.011448 -4.848397 -6.881703 -3.400244 51.562500 8.076172 2.618559 -76.650391 -1.533203 3.271484 0.457424 -16.297516 10.530919 -42.292267 27.568842 -30.456278 -95.600906 0.458116 -2.665496 16.180082 16.940413 -7.712633 -3.555683 22.660583 14.245158 46.575214 -25.098557 -50.184753 85.916664 -0.198604 -3.149168 -0.212892 -71.696968 2.691360 -6.664479 10.911683 -8.937538 10.781210 -5.634348 -1.432906 12.628230 -0.882240 10.379045 2.909146 -14.471649 -37.166679 19.606464 4.886149 1.863271 7.839042 -10.276494 4.973397 
